<svg xmlns="http://www.w3.org/2000/svg"
     width="0.693333in" height="0.81in"
     viewBox="0 0 208 243">
  <path id="Selection"
        fill="none" stroke="black" stroke-width="1"
        d="M 0.00,0.00
           C 0.00,0.00 47.00,0.00 47.00,0.00
             59.53,0.02 58.59,4.71 66.00,3.77
             72.84,2.91 69.37,0.02 81.00,0.00
             81.00,0.00 157.00,0.00 157.00,0.00
             155.01,12.19 172.48,12.33 175.82,4.95
             176.39,3.23 176.11,1.76 175.82,0.00
             175.82,0.00 208.00,0.00 208.00,0.00
             208.00,0.00 208.00,25.00 208.00,25.00
             208.00,25.00 205.52,39.00 205.52,39.00
             205.52,39.00 208.00,48.00 208.00,48.00
             208.00,48.00 201.00,50.00 201.00,50.00
             203.65,53.25 203.76,53.93 208.00,54.00
             208.00,54.00 208.00,64.00 208.00,64.00
             208.00,64.00 191.00,64.00 191.00,64.00
             191.00,64.00 190.00,71.00 190.00,71.00
             190.00,71.00 189.00,64.00 189.00,64.00
             189.00,64.00 188.00,68.00 188.00,68.00
             188.00,68.00 188.00,64.00 188.00,64.00
             188.00,64.00 183.00,63.00 183.00,63.00
             183.00,63.00 179.00,66.00 179.00,66.00
             179.00,66.00 184.00,68.00 184.00,68.00
             179.27,75.44 182.37,75.51 172.00,82.00
             172.00,82.00 177.00,83.00 177.00,83.00
             177.00,83.00 172.00,86.00 172.00,86.00
             172.00,86.00 165.79,72.00 165.79,72.00
             165.79,72.00 163.00,64.00 163.00,64.00
             162.75,75.50 173.57,84.34 174.00,96.00
             179.24,100.25 178.67,107.33 179.87,113.00
             180.94,118.06 183.53,122.74 183.00,128.00
             186.22,130.50 186.58,135.19 187.53,139.00
             187.53,139.00 191.54,158.00 191.54,158.00
             191.54,158.00 193.00,168.00 193.00,168.00
             193.00,168.00 180.00,177.00 180.00,177.00
             179.97,168.04 176.66,155.85 174.31,147.01
             171.51,136.50 169.00,125.76 164.00,116.00
             164.00,116.00 168.14,136.00 168.14,136.00
             169.13,140.11 170.45,141.24 168.14,145.00
             172.61,150.46 171.19,152.31 172.08,158.42
             172.08,158.42 173.96,173.00 173.96,173.00
             173.96,173.00 173.96,182.00 173.96,182.00
             173.96,182.00 155.00,190.00 155.00,190.00
             155.39,182.43 155.58,160.05 158.00,154.00
             158.00,154.00 159.00,157.00 159.00,157.00
             159.00,157.00 160.00,152.00 160.00,152.00
             160.00,152.00 156.00,152.00 156.00,152.00
             156.00,152.00 155.00,121.00 155.00,121.00
             155.00,121.00 157.00,122.00 157.00,122.00
             157.00,122.00 156.00,117.00 156.00,117.00
             153.27,114.44 152.38,103.10 151.84,99.00
             150.77,90.80 146.15,75.61 142.76,68.00
             137.39,55.97 134.75,67.94 129.00,56.00
             127.43,62.37 129.01,65.11 122.00,67.00
             122.00,67.00 119.00,54.00 119.00,54.00
             116.40,68.47 121.32,66.90 114.00,72.00
             108.59,65.42 110.83,56.30 118.00,52.00
             114.83,47.47 117.09,44.39 122.00,42.70
             126.41,41.18 141.18,41.32 144.23,45.49
             145.22,46.83 144.81,47.15 145.00,48.00
             145.00,48.00 150.00,48.00 150.00,48.00
             144.76,42.40 138.53,40.17 131.00,40.00
             131.00,40.00 138.00,27.00 138.00,27.00
             128.10,33.47 123.23,35.02 112.00,38.00
             112.00,38.00 111.00,35.00 111.00,35.00
             120.07,34.24 131.56,29.40 137.00,22.00
             123.81,19.68 122.30,25.42 111.72,25.82
             106.69,26.01 100.65,23.50 96.00,21.58
             93.01,20.34 90.06,19.54 88.00,17.00
             88.00,17.00 85.00,18.00 85.00,18.00
             85.00,18.00 81.00,15.00 81.00,15.00
             81.00,15.00 82.00,13.00 82.00,13.00
             82.00,13.00 79.00,12.00 79.00,12.00
             79.64,14.95 80.30,15.84 78.00,18.00
             78.82,24.47 75.52,21.88 74.00,26.00
             74.00,26.00 68.00,26.00 68.00,26.00
             68.00,26.00 83.00,31.00 83.00,31.00
             81.64,27.28 80.59,24.86 82.00,21.00
             82.00,21.00 98.00,43.00 98.00,43.00
             98.00,43.00 89.00,49.00 89.00,49.00
             89.00,49.00 96.00,50.00 96.00,50.00
             92.73,55.10 85.71,56.58 80.00,56.00
             74.80,61.53 62.12,53.03 58.00,49.00
             58.00,49.00 72.00,47.00 72.00,47.00
             69.91,43.19 67.93,41.74 64.00,40.00
             64.00,40.00 66.00,42.00 66.00,42.00
             66.00,42.00 66.00,43.00 66.00,43.00
             61.76,43.18 59.74,44.18 56.00,42.00
             56.00,42.00 61.00,40.00 61.00,40.00
             61.00,40.00 59.00,38.00 59.00,38.00
             59.00,38.00 64.00,40.00 64.00,40.00
             56.80,29.71 59.41,34.26 55.00,23.00
             55.00,23.00 59.00,24.00 59.00,24.00
             59.00,24.00 61.00,25.00 61.00,25.00
             61.00,25.00 64.00,24.00 64.00,24.00
             64.00,24.00 66.00,27.00 66.00,27.00
             66.00,27.00 68.00,24.00 68.00,24.00
             62.36,22.94 57.11,19.44 54.96,20.62
             53.50,21.66 54.34,24.53 54.96,26.01
             56.52,32.63 58.77,33.02 56.00,40.00
             56.00,40.00 51.00,40.00 51.00,40.00
             54.52,45.14 53.66,46.24 52.00,52.00
             58.42,55.75 57.09,61.14 58.00,68.00
             61.92,62.70 61.18,62.16 60.00,56.00
             60.00,56.00 63.00,55.00 63.00,55.00
             63.00,55.00 64.75,69.46 64.75,69.46
             64.75,69.46 64.00,71.00 64.00,71.00
             64.00,71.00 66.00,72.00 66.00,72.00
             66.00,72.00 66.00,74.00 66.00,74.00
             66.00,74.00 65.00,79.00 65.00,79.00
             65.00,79.00 62.00,80.00 62.00,80.00
             63.82,84.11 63.98,87.27 60.00,90.00
             60.00,90.00 61.00,93.00 61.00,93.00
             61.00,93.00 58.00,93.00 58.00,93.00
             58.00,93.00 60.00,95.00 60.00,95.00
             60.00,95.00 60.00,96.00 60.00,96.00
             60.00,96.00 57.00,97.00 57.00,97.00
             57.00,97.00 56.00,104.00 56.00,104.00
             51.19,103.76 50.00,103.91 47.00,100.00
             45.47,103.56 44.65,101.17 38.00,99.00
             38.00,99.00 38.00,104.00 38.00,104.00
             34.55,102.34 34.09,101.65 33.00,98.00
             29.28,97.10 28.45,94.26 26.78,91.00
             23.56,84.69 21.30,74.79 24.00,68.00
             24.00,68.00 32.00,76.00 32.00,76.00
             32.00,76.00 45.00,81.00 45.00,81.00
             45.00,81.00 37.00,69.00 37.00,69.00
             37.00,69.00 35.00,75.00 35.00,75.00
             35.00,75.00 33.00,67.00 33.00,67.00
             33.00,67.00 32.00,66.00 32.00,66.00
             32.00,66.00 30.00,67.00 30.00,67.00
             30.00,67.00 29.00,65.00 29.00,65.00
             29.00,65.00 30.00,64.00 30.00,64.00
             30.00,64.00 24.00,66.00 24.00,66.00
             24.00,66.00 22.00,64.00 22.00,64.00
             22.00,64.00 21.00,64.00 21.00,64.00
             21.00,64.00 21.00,68.00 21.00,68.00
             21.00,68.00 19.00,64.00 19.00,64.00
             19.00,64.00 16.00,67.00 16.00,67.00
             12.86,62.31 5.06,64.00 0.15,64.00
             0.15,64.00 0.15,39.17 0.15,39.17
             1.26,35.51 5.07,33.74 5.15,30.04
             5.23,26.90 2.17,24.74 0.00,23.00
             0.00,23.00 0.00,0.00 0.00,0.00 Z
           M 23.00,1.00
           C 23.00,1.00 22.00,1.00 22.00,1.00
             22.00,1.00 23.00,2.00 23.00,2.00
             23.00,2.00 23.00,1.00 23.00,1.00 Z
           M 88.00,3.00
           C 84.12,2.54 82.41,1.51 80.00,5.00
             80.00,5.00 88.00,5.00 88.00,5.00
             88.00,5.00 88.00,3.00 88.00,3.00 Z
           M 179.00,2.00
           C 179.00,2.00 178.00,2.00 178.00,2.00
             178.00,2.00 179.00,3.00 179.00,3.00
             179.00,3.00 179.00,2.00 179.00,2.00 Z
           M 78.00,4.00
           C 78.00,4.00 76.00,4.00 76.00,4.00
             76.00,4.00 77.00,10.00 77.00,10.00
             77.00,10.00 76.00,6.00 76.00,6.00
             76.00,6.00 77.00,6.00 77.00,6.00
             77.00,6.00 78.00,4.00 78.00,4.00 Z
           M 119.00,6.00
           C 119.00,6.00 118.00,6.00 118.00,6.00
             118.00,6.00 119.00,7.00 119.00,7.00
             119.00,7.00 119.00,6.00 119.00,6.00 Z
           M 110.00,22.00
           C 108.14,11.05 91.36,7.03 82.00,7.00
             85.10,17.27 100.22,21.91 110.00,22.00 Z
           M 103.00,10.00
           C 103.00,10.00 102.00,10.00 102.00,10.00
             102.00,10.00 103.00,11.00 103.00,11.00
             103.00,11.00 103.00,10.00 103.00,10.00 Z
           M 105.00,11.00
           C 105.00,11.00 104.00,11.00 104.00,11.00
             104.00,11.00 105.00,12.00 105.00,12.00
             105.00,12.00 105.00,11.00 105.00,11.00 Z
           M 75.00,12.00
           C 75.00,12.00 74.00,12.00 74.00,12.00
             74.00,12.00 75.00,13.00 75.00,13.00
             75.00,13.00 75.00,12.00 75.00,12.00 Z
           M 107.00,12.00
           C 107.00,12.00 106.00,12.00 106.00,12.00
             106.00,12.00 107.00,13.00 107.00,13.00
             107.00,13.00 107.00,12.00 107.00,12.00 Z
           M 111.00,12.00
           C 111.00,12.00 110.00,12.00 110.00,12.00
             110.00,12.00 111.00,13.00 111.00,13.00
             111.00,13.00 111.00,12.00 111.00,12.00 Z
           M 74.00,13.00
           C 74.00,13.00 73.00,13.00 73.00,13.00
             73.00,13.00 74.00,14.00 74.00,14.00
             74.00,14.00 74.00,13.00 74.00,13.00 Z
           M 108.00,13.00
           C 108.00,13.00 107.00,13.00 107.00,13.00
             107.00,13.00 108.00,14.00 108.00,14.00
             108.00,14.00 108.00,13.00 108.00,13.00 Z
           M 112.00,13.00
           C 112.00,13.00 111.00,13.00 111.00,13.00
             111.00,13.00 112.00,14.00 112.00,14.00
             112.00,14.00 112.00,13.00 112.00,13.00 Z
           M 110.00,14.00
           C 110.00,14.00 109.00,14.00 109.00,14.00
             109.00,14.00 110.00,15.00 110.00,15.00
             110.00,15.00 110.00,14.00 110.00,14.00 Z
           M 74.00,15.00
           C 74.00,15.00 73.00,15.00 73.00,15.00
             73.00,15.00 74.00,16.00 74.00,16.00
             74.00,16.00 74.00,15.00 74.00,15.00 Z
           M 111.00,15.00
           C 111.00,15.00 110.00,15.00 110.00,15.00
             110.00,15.00 111.00,16.00 111.00,16.00
             111.00,16.00 111.00,15.00 111.00,15.00 Z
           M 112.00,16.00
           C 112.00,16.00 111.00,16.00 111.00,16.00
             111.00,16.00 112.00,17.00 112.00,17.00
             112.00,17.00 112.00,16.00 112.00,16.00 Z
           M 115.00,16.00
           C 115.00,16.00 114.00,16.00 114.00,16.00
             114.00,16.00 115.00,17.00 115.00,17.00
             115.00,17.00 115.00,16.00 115.00,16.00 Z
           M 118.00,16.00
           C 118.00,16.00 117.00,16.00 117.00,16.00
             117.00,16.00 118.00,17.00 118.00,17.00
             118.00,17.00 118.00,16.00 118.00,16.00 Z
           M 73.00,17.00
           C 73.00,17.00 72.00,17.00 72.00,17.00
             72.00,17.00 73.00,18.00 73.00,18.00
             73.00,18.00 73.00,17.00 73.00,17.00 Z
           M 113.00,17.00
           C 113.00,17.00 112.00,17.00 112.00,17.00
             112.00,17.00 113.00,18.00 113.00,18.00
             113.00,18.00 113.00,17.00 113.00,17.00 Z
           M 143.00,17.00
           C 143.00,17.00 142.00,17.00 142.00,17.00
             142.00,17.00 143.00,18.00 143.00,18.00
             143.00,18.00 143.00,17.00 143.00,17.00 Z
           M 114.00,18.00
           C 114.00,18.00 113.00,18.00 113.00,18.00
             113.00,18.00 114.00,19.00 114.00,19.00
             114.00,19.00 114.00,18.00 114.00,18.00 Z
           M 120.00,18.00
           C 120.00,18.00 119.00,18.00 119.00,18.00
             119.00,18.00 120.00,19.00 120.00,19.00
             120.00,19.00 120.00,18.00 120.00,18.00 Z
           M 123.00,18.00
           C 123.00,18.00 122.00,18.00 122.00,18.00
             122.00,18.00 123.00,19.00 123.00,19.00
             123.00,19.00 123.00,18.00 123.00,18.00 Z
           M 115.00,19.00
           C 115.00,19.00 114.00,19.00 114.00,19.00
             114.00,19.00 115.00,20.00 115.00,20.00
             115.00,20.00 115.00,19.00 115.00,19.00 Z
           M 119.00,19.00
           C 119.00,19.00 117.00,23.00 117.00,23.00
             117.00,23.00 122.00,21.00 122.00,21.00
             122.00,21.00 121.00,21.00 121.00,21.00
             121.00,21.00 119.00,19.00 119.00,19.00 Z
           M 143.00,20.00
           C 141.01,21.71 140.80,21.60 142.00,24.00
             142.00,24.00 143.00,20.00 143.00,20.00 Z
           M 77.00,21.00
           C 77.00,21.00 76.00,21.00 76.00,21.00
             76.00,21.00 77.00,22.00 77.00,22.00
             77.00,22.00 77.00,21.00 77.00,21.00 Z
           M 3.00,22.00
           C 3.00,22.00 2.00,22.00 2.00,22.00
             2.00,22.00 3.00,23.00 3.00,23.00
             3.00,23.00 3.00,22.00 3.00,22.00 Z
           M 144.00,22.00
           C 144.00,22.00 143.00,22.00 143.00,22.00
             143.00,22.00 144.00,23.00 144.00,23.00
             144.00,23.00 144.00,22.00 144.00,22.00 Z
           M 57.00,23.00
           C 57.00,23.00 56.00,23.00 56.00,23.00
             56.00,23.00 57.00,24.00 57.00,24.00
             57.00,24.00 57.00,23.00 57.00,23.00 Z
           M 141.00,24.00
           C 141.00,24.00 140.00,24.00 140.00,24.00
             140.00,24.00 141.00,25.00 141.00,25.00
             141.00,25.00 141.00,24.00 141.00,24.00 Z
           M 144.00,24.00
           C 144.00,24.00 143.00,24.00 143.00,24.00
             143.00,24.00 144.00,25.00 144.00,25.00
             144.00,25.00 144.00,24.00 144.00,24.00 Z
           M 42.00,26.00
           C 42.00,26.00 41.00,26.00 41.00,26.00
             41.00,26.00 42.00,27.00 42.00,27.00
             42.00,27.00 42.00,26.00 42.00,26.00 Z
           M 139.00,26.00
           C 139.00,26.00 138.00,26.00 138.00,26.00
             138.00,26.00 139.00,27.00 139.00,27.00
             139.00,27.00 139.00,26.00 139.00,26.00 Z
           M 142.00,27.00
           C 142.00,27.00 139.00,31.00 139.00,31.00
             139.00,31.00 141.00,33.00 141.00,33.00
             141.00,33.00 142.00,33.00 142.00,33.00
             142.00,33.00 142.00,27.00 142.00,27.00 Z
           M 66.00,28.00
           C 66.00,28.00 65.00,28.00 65.00,28.00
             65.00,28.00 66.00,29.00 66.00,29.00
             66.00,29.00 66.00,28.00 66.00,28.00 Z
           M 68.00,28.00
           C 68.00,28.00 67.00,28.00 67.00,28.00
             67.00,28.00 68.00,29.00 68.00,29.00
             68.00,29.00 68.00,28.00 68.00,28.00 Z
           M 69.00,29.00
           C 69.00,29.00 68.00,29.00 68.00,29.00
             68.00,29.00 69.00,30.00 69.00,30.00
             69.00,30.00 69.00,29.00 69.00,29.00 Z
           M 45.00,33.00
           C 43.02,31.05 42.28,29.80 40.00,32.00
             40.00,32.00 45.00,33.00 45.00,33.00 Z
           M 144.00,30.00
           C 144.00,30.00 143.00,30.00 143.00,30.00
             143.00,30.00 144.00,31.00 144.00,31.00
             144.00,31.00 144.00,30.00 144.00,30.00 Z
           M 51.00,31.00
           C 51.00,31.00 50.00,31.00 50.00,31.00
             50.00,31.00 51.00,32.00 51.00,32.00
             51.00,32.00 51.00,31.00 51.00,31.00 Z
           M 72.00,31.00
           C 72.00,31.00 71.00,31.00 71.00,31.00
             71.00,31.00 72.00,32.00 72.00,32.00
             72.00,32.00 72.00,31.00 72.00,31.00 Z
           M 40.00,32.00
           C 38.69,35.30 38.69,37.70 40.00,41.00
             40.00,41.00 40.00,32.00 40.00,32.00 Z
           M 73.00,32.00
           C 73.00,32.00 72.00,32.00 72.00,32.00
             72.00,32.00 73.00,33.00 73.00,33.00
             73.00,33.00 73.00,32.00 73.00,32.00 Z
           M 144.00,32.00
           C 144.00,32.00 143.00,32.00 143.00,32.00
             143.00,32.00 144.00,33.00 144.00,33.00
             144.00,33.00 144.00,32.00 144.00,32.00 Z
           M 146.00,32.00
           C 146.00,32.00 145.00,32.00 145.00,32.00
             145.00,32.00 146.00,33.00 146.00,33.00
             146.00,33.00 146.00,32.00 146.00,32.00 Z
           M 46.00,33.00
           C 46.00,33.00 45.00,33.00 45.00,33.00
             45.00,33.00 46.00,34.00 46.00,34.00
             46.00,34.00 46.00,33.00 46.00,33.00 Z
           M 74.00,33.00
           C 74.00,33.00 73.00,33.00 73.00,33.00
             73.00,33.00 74.00,34.00 74.00,34.00
             74.00,34.00 74.00,33.00 74.00,33.00 Z
           M 143.00,33.00
           C 143.00,33.00 142.00,33.00 142.00,33.00
             142.00,33.00 143.00,34.00 143.00,34.00
             143.00,34.00 143.00,33.00 143.00,33.00 Z
           M 148.00,33.00
           C 148.00,33.00 147.00,33.00 147.00,33.00
             147.00,33.00 148.00,34.00 148.00,34.00
             148.00,34.00 148.00,33.00 148.00,33.00 Z
           M 158.00,33.00
           C 158.00,33.00 157.00,33.00 157.00,33.00
             157.00,33.00 158.00,34.00 158.00,34.00
             158.00,34.00 158.00,33.00 158.00,33.00 Z
           M 47.00,34.00
           C 47.00,34.00 46.00,34.00 46.00,34.00
             46.00,34.00 47.00,35.00 47.00,35.00
             47.00,35.00 47.00,34.00 47.00,34.00 Z
           M 76.00,34.00
           C 76.00,34.00 75.00,34.00 75.00,34.00
             75.00,34.00 76.00,35.00 76.00,35.00
             76.00,35.00 76.00,34.00 76.00,34.00 Z
           M 144.00,34.00
           C 144.00,34.00 143.00,34.00 143.00,34.00
             143.00,34.00 144.00,35.00 144.00,35.00
             144.00,35.00 144.00,34.00 144.00,34.00 Z
           M 52.00,35.00
           C 52.00,35.00 51.00,35.00 51.00,35.00
             51.00,35.00 52.00,36.00 52.00,36.00
             52.00,36.00 52.00,35.00 52.00,35.00 Z
           M 75.00,35.00
           C 75.00,35.00 74.00,35.00 74.00,35.00
             74.00,35.00 75.00,36.00 75.00,36.00
             75.00,36.00 75.00,35.00 75.00,35.00 Z
           M 145.00,35.00
           C 145.00,35.00 144.00,35.00 144.00,35.00
             144.00,35.00 145.00,36.00 145.00,36.00
             145.00,36.00 145.00,35.00 145.00,35.00 Z
           M 78.00,36.00
           C 78.00,36.00 77.00,36.00 77.00,36.00
             77.00,36.00 78.00,37.00 78.00,37.00
             78.00,37.00 78.00,36.00 78.00,36.00 Z
           M 50.00,37.00
           C 50.00,37.00 49.00,37.00 49.00,37.00
             49.00,37.00 50.00,38.00 50.00,38.00
             50.00,38.00 50.00,37.00 50.00,37.00 Z
           M 75.00,37.00
           C 75.00,37.00 74.00,37.00 74.00,37.00
             74.00,37.00 75.00,38.00 75.00,38.00
             75.00,38.00 75.00,37.00 75.00,37.00 Z
           M 146.00,37.00
           C 146.00,37.00 145.00,37.00 145.00,37.00
             145.00,37.00 146.00,38.00 146.00,38.00
             146.00,38.00 146.00,37.00 146.00,37.00 Z
           M 51.00,38.00
           C 51.00,38.00 50.00,38.00 50.00,38.00
             50.00,38.00 51.00,39.00 51.00,39.00
             51.00,39.00 51.00,38.00 51.00,38.00 Z
           M 147.00,38.00
           C 147.00,38.00 146.00,38.00 146.00,38.00
             146.00,38.00 147.00,39.00 147.00,39.00
             147.00,39.00 147.00,38.00 147.00,38.00 Z
           M 78.00,39.00
           C 78.00,39.00 77.00,39.00 77.00,39.00
             77.00,39.00 78.00,40.00 78.00,40.00
             78.00,40.00 78.00,39.00 78.00,39.00 Z
           M 112.00,39.00
           C 112.00,39.00 120.00,42.00 120.00,42.00
             120.00,42.00 114.00,44.00 114.00,44.00
             114.00,44.00 112.00,39.00 112.00,39.00 Z
           M 151.00,42.00
           C 149.37,40.17 149.34,40.24 147.00,41.00
             147.00,41.00 151.00,42.00 151.00,42.00 Z
           M 85.00,41.00
           C 85.00,41.00 84.00,41.00 84.00,41.00
             84.00,41.00 85.00,42.00 85.00,42.00
             85.00,42.00 85.00,41.00 85.00,41.00 Z
           M 20.00,42.00
           C 20.00,42.00 19.00,42.00 19.00,42.00
             19.00,42.00 20.00,43.00 20.00,43.00
             20.00,43.00 20.00,42.00 20.00,42.00 Z
           M 41.00,42.00
           C 39.91,44.83 39.66,45.90 42.00,48.00
             42.00,48.00 41.00,42.00 41.00,42.00 Z
           M 82.00,42.00
           C 82.00,42.00 81.00,42.00 81.00,42.00
             81.00,42.00 82.00,43.00 82.00,43.00
             82.00,43.00 82.00,42.00 82.00,42.00 Z
           M 86.00,43.00
           C 86.00,43.00 85.00,43.00 85.00,43.00
             85.00,43.00 86.00,44.00 86.00,44.00
             86.00,44.00 86.00,43.00 86.00,43.00 Z
           M 128.00,44.00
           C 128.00,44.00 127.00,44.00 127.00,44.00
             127.00,44.00 128.00,45.00 128.00,45.00
             128.00,45.00 128.00,44.00 128.00,44.00 Z
           M 180.00,44.00
           C 180.00,44.00 179.00,44.00 179.00,44.00
             179.00,44.00 180.00,45.00 180.00,45.00
             180.00,45.00 180.00,44.00 180.00,44.00 Z
           M 21.00,46.00
           C 21.00,46.00 20.00,46.00 20.00,46.00
             20.00,46.00 21.00,47.00 21.00,47.00
             21.00,47.00 21.00,46.00 21.00,46.00 Z
           M 82.00,46.00
           C 82.00,46.00 81.00,46.00 81.00,46.00
             81.00,46.00 82.00,47.00 82.00,47.00
             82.00,47.00 82.00,46.00 82.00,46.00 Z
           M 120.00,46.00
           C 118.01,47.71 117.80,47.60 119.00,50.00
             119.00,50.00 120.00,46.00 120.00,46.00 Z
           M 179.00,46.00
           C 179.00,46.00 178.00,47.00 178.00,47.00
             182.15,51.91 179.54,52.93 181.00,58.00
             181.00,58.00 182.00,56.00 182.00,56.00
             182.00,56.00 183.00,56.00 183.00,56.00
             181.90,51.51 182.82,48.55 179.00,46.00 Z
           M 20.00,47.00
           C 20.00,47.00 19.00,47.00 19.00,47.00
             19.00,47.00 20.00,48.00 20.00,48.00
             20.00,48.00 20.00,47.00 20.00,47.00 Z
           M 114.00,46.00
           C 114.00,46.00 115.00,46.00 115.00,46.00
             115.00,46.00 114.00,47.00 114.00,47.00
             114.00,47.00 114.00,46.00 114.00,46.00 Z
           M 78.00,48.00
           C 78.00,48.00 77.00,48.00 77.00,48.00
             77.00,48.00 78.00,49.00 78.00,49.00
             78.00,49.00 78.00,48.00 78.00,48.00 Z
           M 95.00,47.00
           C 95.00,47.00 96.00,47.00 96.00,47.00
             96.00,47.00 95.00,48.00 95.00,48.00
             95.00,48.00 95.00,47.00 95.00,47.00 Z
           M 152.00,48.00
           C 152.00,48.00 151.00,48.00 151.00,48.00
             151.00,48.00 152.00,49.00 152.00,49.00
             152.00,49.00 152.00,48.00 152.00,48.00 Z
           M 177.00,48.00
           C 177.00,48.00 176.00,48.00 176.00,48.00
             176.00,48.00 177.00,49.00 177.00,49.00
             177.00,49.00 177.00,48.00 177.00,48.00 Z
           M 33.00,49.00
           C 33.00,49.00 32.00,49.00 32.00,49.00
             32.00,49.00 33.00,50.00 33.00,50.00
             33.00,50.00 33.00,49.00 33.00,49.00 Z
           M 39.00,49.00
           C 39.00,49.00 38.00,49.00 38.00,49.00
             38.00,49.00 39.00,50.00 39.00,50.00
             39.00,50.00 39.00,49.00 39.00,49.00 Z
           M 43.00,49.00
           C 43.00,49.00 42.00,49.00 42.00,49.00
             42.00,49.00 43.00,50.00 43.00,50.00
             43.00,50.00 43.00,49.00 43.00,49.00 Z
           M 150.00,49.00
           C 150.00,49.00 149.00,49.00 149.00,49.00
             149.00,49.00 150.00,50.00 150.00,50.00
             150.00,50.00 150.00,49.00 150.00,49.00 Z
           M 171.00,49.00
           C 171.00,49.00 170.00,49.00 170.00,49.00
             170.00,49.00 171.00,50.00 171.00,50.00
             171.00,50.00 171.00,49.00 171.00,49.00 Z
           M 120.00,50.00
           C 120.00,50.00 119.00,50.00 119.00,50.00
             119.00,50.00 120.00,51.00 120.00,51.00
             120.00,51.00 120.00,50.00 120.00,50.00 Z
           M 151.00,50.00
           C 151.00,50.00 150.00,50.00 150.00,50.00
             150.00,50.00 151.00,51.00 151.00,51.00
             151.00,51.00 151.00,50.00 151.00,50.00 Z
           M 170.00,50.00
           C 170.00,50.00 169.00,50.00 169.00,50.00
             169.00,50.00 170.00,51.00 170.00,51.00
             170.00,51.00 170.00,50.00 170.00,50.00 Z
           M 175.00,50.00
           C 175.00,50.00 174.00,50.00 174.00,50.00
             174.00,50.00 175.00,51.00 175.00,51.00
             175.00,51.00 175.00,50.00 175.00,50.00 Z
           M 33.00,51.00
           C 33.00,51.00 32.00,51.00 32.00,51.00
             32.00,51.00 33.00,52.00 33.00,52.00
             33.00,52.00 33.00,51.00 33.00,51.00 Z
           M 44.00,51.00
           C 44.00,51.00 43.00,51.00 43.00,51.00
             43.00,51.00 44.00,52.00 44.00,52.00
             44.00,52.00 44.00,51.00 44.00,51.00 Z
           M 90.00,51.00
           C 90.00,51.00 86.00,51.00 86.00,51.00
             86.00,51.00 89.00,54.00 89.00,54.00
             89.00,54.00 90.00,51.00 90.00,51.00 Z
           M 152.00,51.00
           C 152.00,51.00 151.00,51.00 151.00,51.00
             151.00,51.00 152.00,52.00 152.00,52.00
             152.00,52.00 152.00,51.00 152.00,51.00 Z
           M 157.00,52.00
           C 157.00,52.00 156.00,52.00 156.00,52.00
             156.00,52.00 157.00,53.00 157.00,53.00
             157.00,53.00 157.00,52.00 157.00,52.00 Z
           M 173.00,52.00
           C 173.00,52.00 172.00,52.00 172.00,52.00
             172.00,52.00 173.00,53.00 173.00,53.00
             173.00,53.00 173.00,52.00 173.00,52.00 Z
           M 40.00,53.00
           C 40.00,53.00 35.00,54.00 35.00,54.00
             35.00,54.00 40.00,53.00 40.00,53.00 Z
           M 46.00,54.00
           C 46.00,54.00 41.00,54.00 41.00,54.00
             41.00,54.00 46.00,54.00 46.00,54.00 Z
           M 101.00,52.00
           C 101.00,52.00 102.00,52.00 102.00,52.00
             102.00,52.00 101.00,53.00 101.00,53.00
             101.00,53.00 101.00,52.00 101.00,52.00 Z
           M 172.00,53.00
           C 172.00,53.00 171.00,53.00 171.00,53.00
             171.00,53.00 172.00,54.00 172.00,54.00
             172.00,54.00 172.00,53.00 172.00,53.00 Z
           M 33.00,54.00
           C 33.00,54.00 32.00,54.00 32.00,54.00
             32.00,54.00 33.00,55.00 33.00,55.00
             33.00,55.00 33.00,54.00 33.00,54.00 Z
           M 154.00,54.00
           C 154.00,54.00 153.00,54.00 153.00,54.00
             153.00,54.00 154.00,55.00 154.00,55.00
             154.00,55.00 154.00,54.00 154.00,54.00 Z
           M 171.00,54.00
           C 171.00,54.00 170.00,54.00 170.00,54.00
             170.00,54.00 171.00,55.00 171.00,55.00
             171.00,55.00 171.00,54.00 171.00,54.00 Z
           M 36.00,55.00
           C 36.00,55.00 35.00,55.00 35.00,55.00
             35.00,55.00 36.00,56.00 36.00,56.00
             36.00,56.00 36.00,55.00 36.00,55.00 Z
           M 157.00,55.00
           C 157.00,55.00 154.00,55.00 154.00,55.00
             154.00,55.00 156.00,58.00 156.00,58.00
             156.00,58.00 157.00,55.00 157.00,55.00 Z
           M 37.00,56.00
           C 30.88,65.94 34.11,62.04 34.00,70.00
             36.57,68.15 36.28,68.12 36.00,65.00
             41.75,68.07 47.25,72.65 54.00,70.00
             54.00,70.00 44.00,68.00 44.00,68.00
             44.00,68.00 47.00,66.00 47.00,66.00
             41.99,63.31 39.69,61.01 37.00,56.00 Z
           M 73.00,56.00
           C 73.00,56.00 72.00,56.00 72.00,56.00
             72.00,56.00 73.00,57.00 73.00,57.00
             73.00,57.00 73.00,56.00 73.00,56.00 Z
           M 134.00,56.00
           C 134.00,56.00 133.00,56.00 133.00,56.00
             133.00,56.00 134.00,57.00 134.00,57.00
             134.00,57.00 134.00,56.00 134.00,56.00 Z
           M 162.00,56.00
           C 162.00,56.00 161.00,56.00 161.00,56.00
             161.00,56.00 162.00,57.00 162.00,57.00
             162.00,57.00 162.00,56.00 162.00,56.00 Z
           M 164.00,56.00
           C 164.00,56.00 163.00,56.00 163.00,56.00
             163.00,56.00 164.00,57.00 164.00,57.00
             164.00,57.00 164.00,56.00 164.00,56.00 Z
           M 167.00,56.00
           C 167.00,56.00 166.00,56.00 166.00,56.00
             166.00,56.00 167.00,57.00 167.00,57.00
             167.00,57.00 167.00,56.00 167.00,56.00 Z
           M 169.00,56.00
           C 169.00,56.00 168.00,56.00 168.00,56.00
             168.00,56.00 169.00,57.00 169.00,57.00
             169.00,57.00 169.00,56.00 169.00,56.00 Z
           M 161.00,57.00
           C 161.00,57.00 160.00,57.00 160.00,57.00
             160.00,57.00 161.00,58.00 161.00,58.00
             161.00,58.00 161.00,57.00 161.00,57.00 Z
           M 165.00,57.00
           C 165.00,57.00 164.00,57.00 164.00,57.00
             164.00,57.00 165.00,58.00 165.00,58.00
             165.00,58.00 165.00,57.00 165.00,57.00 Z
           M 67.00,57.00
           C 67.00,57.00 68.00,57.00 68.00,57.00
             68.00,57.00 67.00,58.00 67.00,58.00
             67.00,58.00 67.00,57.00 67.00,57.00 Z
           M 157.00,58.00
           C 157.00,58.00 156.00,58.00 156.00,58.00
             156.00,58.00 157.00,59.00 157.00,59.00
             157.00,59.00 157.00,58.00 157.00,58.00 Z
           M 163.00,58.00
           C 163.00,58.00 162.00,58.00 162.00,58.00
             162.00,58.00 163.00,59.00 163.00,59.00
             163.00,59.00 163.00,58.00 163.00,58.00 Z
           M 33.00,59.00
           C 33.00,59.00 32.00,59.00 32.00,59.00
             32.00,59.00 33.00,60.00 33.00,60.00
             33.00,60.00 33.00,59.00 33.00,59.00 Z
           M 158.00,59.00
           C 158.00,59.00 157.00,59.00 157.00,59.00
             157.00,59.00 158.00,60.00 158.00,60.00
             158.00,60.00 158.00,59.00 158.00,59.00 Z
           M 162.00,59.00
           C 162.00,59.00 161.00,59.00 161.00,59.00
             161.00,59.00 162.00,60.00 162.00,60.00
             162.00,60.00 162.00,59.00 162.00,59.00 Z
           M 164.00,59.00
           C 164.00,59.00 163.00,59.00 163.00,59.00
             163.00,59.00 164.00,60.00 164.00,60.00
             164.00,60.00 164.00,59.00 164.00,59.00 Z
           M 181.00,59.00
           C 181.00,59.00 180.00,59.00 180.00,59.00
             180.00,59.00 181.00,60.00 181.00,60.00
             181.00,60.00 181.00,59.00 181.00,59.00 Z
           M 34.00,60.00
           C 34.00,60.00 33.00,60.00 33.00,60.00
             33.00,60.00 34.00,61.00 34.00,61.00
             34.00,61.00 34.00,60.00 34.00,60.00 Z
           M 71.00,59.00
           C 74.02,59.00 80.81,57.67 82.00,61.00
             82.00,61.00 87.00,59.00 87.00,59.00
             87.00,59.00 91.00,62.00 91.00,62.00
             91.00,62.00 90.00,67.00 90.00,67.00
             90.00,67.00 105.00,67.00 105.00,67.00
             105.00,67.00 103.00,76.00 103.00,76.00
             103.00,76.00 99.00,75.00 99.00,75.00
             99.00,75.00 100.00,78.00 100.00,78.00
             94.90,79.46 92.25,80.87 88.00,77.00
             88.00,77.00 94.00,79.00 94.00,79.00
             94.00,79.00 93.00,75.00 93.00,75.00
             93.00,75.00 95.00,73.00 95.00,73.00
             95.00,73.00 90.00,69.00 90.00,69.00
             90.00,69.00 94.00,69.00 94.00,69.00
             94.00,69.00 84.00,65.00 84.00,65.00
             84.00,65.00 86.00,79.00 86.00,79.00
             81.55,78.35 79.04,79.03 78.00,74.00
             78.00,74.00 75.00,68.00 75.00,68.00
             75.00,68.00 72.00,69.00 72.00,69.00
             72.00,69.00 73.00,64.00 73.00,64.00
             73.00,64.00 71.00,59.00 71.00,59.00 Z
           M 159.00,61.00
           C 159.00,61.00 158.00,61.00 158.00,61.00
             158.00,61.00 159.00,62.00 159.00,62.00
             159.00,62.00 159.00,61.00 159.00,61.00 Z
           M 160.00,62.00
           C 160.00,62.00 159.00,62.00 159.00,62.00
             159.00,62.00 160.00,63.00 160.00,63.00
             160.00,63.00 160.00,62.00 160.00,62.00 Z
           M 165.00,63.00
           C 165.00,63.00 164.00,63.00 164.00,63.00
             164.00,63.00 165.00,64.00 165.00,64.00
             165.00,64.00 165.00,63.00 165.00,63.00 Z
           M 32.00,64.00
           C 32.00,64.00 31.00,64.00 31.00,64.00
             31.00,64.00 32.00,65.00 32.00,65.00
             32.00,65.00 32.00,64.00 32.00,64.00 Z
           M 78.00,64.00
           C 78.00,64.00 77.00,64.00 77.00,64.00
             77.00,64.00 78.00,65.00 78.00,65.00
             78.00,65.00 78.00,64.00 78.00,64.00 Z
           M 89.00,64.00
           C 89.00,64.00 88.00,64.00 88.00,64.00
             88.00,64.00 89.00,65.00 89.00,65.00
             89.00,65.00 89.00,64.00 89.00,64.00 Z
           M 179.00,64.00
           C 179.00,64.00 178.00,64.00 178.00,64.00
             178.00,64.00 179.00,65.00 179.00,65.00
             179.00,65.00 179.00,64.00 179.00,64.00 Z
           M 124.00,65.00
           C 124.00,65.00 123.00,65.00 123.00,65.00
             123.00,65.00 124.00,66.00 124.00,66.00
             124.00,66.00 124.00,65.00 124.00,65.00 Z
           M 162.00,65.00
           C 162.00,65.00 161.00,65.00 161.00,65.00
             161.00,65.00 162.00,66.00 162.00,66.00
             162.00,66.00 162.00,65.00 162.00,65.00 Z
           M 62.00,66.00
           C 62.00,66.00 61.00,66.00 61.00,66.00
             61.00,66.00 62.00,67.00 62.00,67.00
             62.00,67.00 62.00,66.00 62.00,66.00 Z
           M 41.00,68.00
           C 41.00,68.00 40.00,68.00 40.00,68.00
             40.00,68.00 41.00,69.00 41.00,69.00
             41.00,69.00 41.00,68.00 41.00,68.00 Z
           M 60.00,68.00
           C 60.00,68.00 59.00,68.00 59.00,68.00
             59.00,68.00 60.00,69.00 60.00,69.00
             60.00,69.00 60.00,68.00 60.00,68.00 Z
           M 80.00,68.00
           C 80.00,68.00 79.00,68.00 79.00,68.00
             79.00,68.00 80.00,69.00 80.00,69.00
             80.00,69.00 80.00,68.00 80.00,68.00 Z
           M 98.00,68.00
           C 98.00,68.00 96.00,69.00 96.00,69.00
             96.00,69.00 96.00,70.00 96.00,70.00
             96.00,70.00 98.00,71.00 98.00,71.00
             98.00,71.00 99.00,69.00 99.00,69.00
             99.00,69.00 98.00,68.00 98.00,68.00 Z
           M 140.00,67.00
           C 140.00,67.00 141.00,67.00 141.00,67.00
             141.00,67.00 140.00,68.00 140.00,68.00
             140.00,68.00 140.00,67.00 140.00,67.00 Z
           M 181.00,68.00
           C 181.00,68.00 180.00,68.00 180.00,68.00
             180.00,68.00 181.00,69.00 181.00,69.00
             181.00,69.00 181.00,68.00 181.00,68.00 Z
           M 180.00,69.00
           C 180.00,69.00 176.00,69.00 176.00,69.00
             177.76,70.97 178.24,70.97 180.00,69.00 Z
           M 42.00,70.00
           C 42.00,70.00 41.00,70.00 41.00,70.00
             41.00,70.00 42.00,71.00 42.00,71.00
             42.00,71.00 42.00,70.00 42.00,70.00 Z
           M 44.00,70.00
           C 44.00,70.00 43.00,70.00 43.00,70.00
             43.00,70.00 44.00,71.00 44.00,71.00
             44.00,71.00 44.00,70.00 44.00,70.00 Z
           M 103.00,70.00
           C 103.00,70.00 102.00,70.00 102.00,70.00
             102.00,70.00 103.00,71.00 103.00,71.00
             103.00,71.00 103.00,70.00 103.00,70.00 Z
           M 116.00,84.00
           C 124.25,79.75 120.21,79.10 123.55,76.02
             125.84,73.91 138.49,69.71 142.00,69.00
             142.53,71.25 144.30,76.17 144.11,78.00
             143.56,83.49 135.58,88.09 131.00,90.00
             131.00,90.00 132.00,82.00 132.00,82.00
             127.85,85.57 125.53,86.70 130.00,91.00
             123.98,90.51 112.55,89.82 115.00,81.00
             115.00,81.00 116.00,84.00 116.00,84.00 Z
           M 41.00,71.00
           C 41.00,71.00 40.00,71.00 40.00,71.00
             40.00,71.00 41.00,72.00 41.00,72.00
             41.00,72.00 41.00,71.00 41.00,71.00 Z
           M 45.00,71.00
           C 45.00,71.00 44.00,71.00 44.00,71.00
             44.00,71.00 45.00,72.00 45.00,72.00
             45.00,72.00 45.00,71.00 45.00,71.00 Z
           M 80.00,71.00
           C 80.00,71.00 77.00,73.00 77.00,73.00
             77.00,73.00 80.00,71.00 80.00,71.00 Z
           M 84.00,71.00
           C 84.00,71.00 83.00,71.00 83.00,71.00
             83.00,71.00 84.00,72.00 84.00,72.00
             84.00,72.00 84.00,71.00 84.00,71.00 Z
           M 102.00,71.00
           C 102.00,71.00 101.00,71.00 101.00,71.00
             101.00,71.00 102.00,72.00 102.00,72.00
             102.00,72.00 102.00,71.00 102.00,71.00 Z
           M 150.00,72.00
           C 150.00,72.00 149.00,72.00 149.00,72.00
             149.00,72.00 150.00,73.00 150.00,73.00
             150.00,73.00 150.00,72.00 150.00,72.00 Z
           M 97.00,73.00
           C 97.00,73.00 96.00,73.00 96.00,73.00
             96.00,73.00 97.00,74.00 97.00,74.00
             97.00,74.00 97.00,73.00 97.00,73.00 Z
           M 83.00,74.00
           C 83.00,74.00 82.00,74.00 82.00,74.00
             82.00,74.00 83.00,75.00 83.00,75.00
             83.00,75.00 83.00,74.00 83.00,74.00 Z
           M 82.00,75.00
           C 82.00,75.00 81.00,75.00 81.00,75.00
             81.00,75.00 82.00,76.00 82.00,76.00
             82.00,76.00 82.00,75.00 82.00,75.00 Z
           M 35.00,77.00
           C 35.00,77.00 34.00,77.00 34.00,77.00
             34.00,77.00 35.00,78.00 35.00,78.00
             35.00,78.00 35.00,77.00 35.00,77.00 Z
           M 98.00,77.00
           C 98.00,77.00 97.00,77.00 97.00,77.00
             97.00,77.00 98.00,78.00 98.00,78.00
             98.00,78.00 98.00,77.00 98.00,77.00 Z
           M 38.00,79.00
           C 38.00,79.00 37.00,79.00 37.00,79.00
             37.00,79.00 38.00,80.00 38.00,80.00
             38.00,80.00 38.00,79.00 38.00,79.00 Z
           M 165.00,79.00
           C 165.00,79.00 164.00,79.00 164.00,79.00
             164.00,79.00 165.00,80.00 165.00,80.00
             165.00,80.00 165.00,79.00 165.00,79.00 Z
           M 61.00,80.00
           C 61.00,80.00 60.00,80.00 60.00,80.00
             60.00,80.00 61.00,81.00 61.00,81.00
             61.00,81.00 61.00,80.00 61.00,80.00 Z
           M 169.00,83.00
           C 169.00,83.00 168.00,83.00 168.00,83.00
             168.00,83.00 169.00,84.00 169.00,84.00
             169.00,84.00 169.00,83.00 169.00,83.00 Z
           M 59.00,87.00
           C 59.00,87.00 58.00,87.00 58.00,87.00
             58.00,87.00 59.00,88.00 59.00,88.00
             59.00,88.00 59.00,87.00 59.00,87.00 Z
           M 61.00,87.00
           C 61.00,87.00 60.00,87.00 60.00,87.00
             60.00,87.00 61.00,88.00 61.00,88.00
             61.00,88.00 61.00,87.00 61.00,87.00 Z
           M 28.00,88.00
           C 28.00,88.00 27.00,88.00 27.00,88.00
             27.00,88.00 28.00,89.00 28.00,89.00
             28.00,89.00 28.00,88.00 28.00,88.00 Z
           M 171.00,88.00
           C 171.00,88.00 170.00,88.00 170.00,88.00
             170.00,88.00 171.00,89.00 171.00,89.00
             171.00,89.00 171.00,88.00 171.00,88.00 Z
           M 32.00,95.00
           C 32.00,95.00 31.00,95.00 31.00,95.00
             31.00,95.00 32.00,96.00 32.00,96.00
             32.00,96.00 32.00,95.00 32.00,95.00 Z
           M 173.00,95.00
           C 173.00,95.00 172.00,95.00 172.00,95.00
             172.00,95.00 173.00,96.00 173.00,96.00
             173.00,96.00 173.00,95.00 173.00,95.00 Z
           M 33.00,96.00
           C 33.00,96.00 32.00,96.00 32.00,96.00
             32.00,96.00 33.00,97.00 33.00,97.00
             33.00,97.00 33.00,96.00 33.00,96.00 Z
           M 40.00,96.00
           C 40.00,96.00 39.00,96.00 39.00,96.00
             39.00,96.00 40.00,97.00 40.00,97.00
             40.00,97.00 40.00,96.00 40.00,96.00 Z
           M 42.00,96.00
           C 42.00,96.00 41.00,96.00 41.00,96.00
             41.00,96.00 42.00,97.00 42.00,97.00
             42.00,97.00 42.00,96.00 42.00,96.00 Z
           M 45.00,96.00
           C 45.00,96.00 44.00,96.00 44.00,96.00
             44.00,96.00 45.00,97.00 45.00,97.00
             45.00,97.00 45.00,96.00 45.00,96.00 Z
           M 37.00,97.00
           C 37.00,97.00 36.00,97.00 36.00,97.00
             36.00,97.00 37.00,98.00 37.00,98.00
             37.00,98.00 37.00,97.00 37.00,97.00 Z
           M 106.00,97.00
           C 114.58,95.25 111.83,101.16 120.00,102.00
             120.00,102.00 118.00,120.00 118.00,120.00
             112.46,117.75 105.92,114.03 100.00,117.00
             101.56,112.65 107.14,111.12 111.00,109.00
             111.00,109.00 111.00,110.00 111.00,110.00
             111.00,110.00 113.00,112.00 113.00,112.00
             113.00,112.00 109.00,103.00 109.00,103.00
             109.00,103.00 110.00,101.00 110.00,101.00
             110.00,101.00 106.00,100.00 106.00,100.00
             106.00,100.00 106.00,97.00 106.00,97.00 Z
           M 41.00,98.00
           C 41.00,98.00 40.00,98.00 40.00,98.00
             40.00,98.00 41.00,99.00 41.00,99.00
             41.00,99.00 41.00,98.00 41.00,98.00 Z
           M 45.00,99.00
           C 45.00,99.00 44.00,99.00 44.00,99.00
             44.00,99.00 45.00,100.00 45.00,100.00
             45.00,100.00 45.00,99.00 45.00,99.00 Z
           M 112.00,99.00
           C 112.00,99.00 111.00,99.00 111.00,99.00
             111.00,99.00 112.00,100.00 112.00,100.00
             112.00,100.00 112.00,99.00 112.00,99.00 Z
           M 101.00,102.00
           C 101.00,102.00 102.00,102.00 102.00,102.00
             102.00,102.00 101.00,103.00 101.00,103.00
             101.00,103.00 101.00,102.00 101.00,102.00 Z
           M 117.00,103.00
           C 117.00,103.00 116.00,103.00 116.00,103.00
             116.00,103.00 117.00,104.00 117.00,104.00
             117.00,104.00 117.00,103.00 117.00,103.00 Z
           M 88.00,104.00
           C 88.00,104.00 89.00,104.00 89.00,104.00
             89.00,104.00 88.00,105.00 88.00,105.00
             88.00,105.00 88.00,104.00 88.00,104.00 Z
           M 143.00,104.00
           C 144.61,105.47 146.14,106.76 146.45,109.09
             146.96,112.93 140.13,123.29 138.00,127.00
             131.03,125.04 131.10,125.23 130.00,115.00
             137.61,116.62 140.15,109.91 143.00,104.00 Z
           M 144.00,108.00
           C 144.00,108.00 143.00,108.00 143.00,108.00
             143.00,108.00 144.00,109.00 144.00,109.00
             144.00,109.00 144.00,108.00 144.00,108.00 Z
           M 24.00,109.00
           C 27.71,108.08 31.37,107.63 35.00,109.00
             32.38,110.45 34.12,112.38 35.00,115.00
             35.00,115.00 32.00,116.00 32.00,116.00
             32.00,116.00 37.00,113.00 37.00,113.00
             37.00,113.00 40.00,117.00 40.00,117.00
             40.00,117.00 37.00,116.00 37.00,116.00
             37.00,116.00 38.00,119.00 38.00,119.00
             38.00,119.00 32.00,117.00 32.00,117.00
             32.00,117.00 36.00,119.00 36.00,119.00
             36.00,119.00 35.00,122.00 35.00,122.00
             29.43,117.97 27.32,114.90 24.00,109.00 Z
           M 30.00,110.00
           C 30.00,110.00 28.00,110.00 28.00,110.00
             28.00,110.00 27.00,113.00 27.00,113.00
             27.00,113.00 30.00,110.00 30.00,110.00 Z
           M 95.00,109.00
           C 95.00,109.00 96.00,109.00 96.00,109.00
             96.00,109.00 95.00,110.00 95.00,110.00
             95.00,110.00 95.00,109.00 95.00,109.00 Z
           M 32.00,112.00
           C 32.00,112.00 31.00,112.00 31.00,112.00
             31.00,112.00 32.00,113.00 32.00,113.00
             32.00,113.00 32.00,112.00 32.00,112.00 Z
           M 112.00,112.00
           C 112.00,112.00 111.00,112.00 111.00,112.00
             111.00,112.00 112.00,113.00 112.00,113.00
             112.00,113.00 112.00,112.00 112.00,112.00 Z
           M 157.00,112.00
           C 157.00,112.00 156.00,112.00 156.00,112.00
             156.00,112.00 157.00,113.00 157.00,113.00
             157.00,113.00 157.00,112.00 157.00,112.00 Z
           M 159.00,112.00
           C 159.00,112.00 158.00,112.00 158.00,112.00
             158.00,112.00 159.00,113.00 159.00,113.00
             159.00,113.00 159.00,112.00 159.00,112.00 Z
           M 30.00,113.00
           C 30.00,113.00 29.00,113.00 29.00,113.00
             29.00,113.00 30.00,114.00 30.00,114.00
             30.00,114.00 30.00,113.00 30.00,113.00 Z
           M 33.00,113.00
           C 33.00,113.00 32.00,113.00 32.00,113.00
             32.00,113.00 33.00,114.00 33.00,114.00
             33.00,114.00 33.00,113.00 33.00,113.00 Z
           M 113.00,113.00
           C 113.00,113.00 112.00,113.00 112.00,113.00
             112.00,113.00 113.00,114.00 113.00,114.00
             113.00,114.00 113.00,113.00 113.00,113.00 Z
           M 112.00,114.00
           C 112.00,114.00 111.00,114.00 111.00,114.00
             111.00,114.00 112.00,115.00 112.00,115.00
             112.00,115.00 112.00,114.00 112.00,114.00 Z
           M 118.00,114.00
           C 118.00,114.00 117.00,114.00 117.00,114.00
             117.00,114.00 118.00,115.00 118.00,115.00
             118.00,115.00 118.00,114.00 118.00,114.00 Z
           M 140.00,119.00
           C 140.00,119.00 139.00,119.00 139.00,119.00
             139.00,119.00 140.00,120.00 140.00,120.00
             140.00,120.00 140.00,119.00 140.00,119.00 Z
           M 160.00,119.00
           C 160.00,119.00 159.00,119.00 159.00,119.00
             159.00,119.00 160.00,120.00 160.00,120.00
             160.00,120.00 160.00,119.00 160.00,119.00 Z
           M 40.00,120.00
           C 40.00,120.00 41.00,120.00 41.00,120.00
             41.00,120.00 40.00,121.00 40.00,121.00
             40.00,121.00 40.00,120.00 40.00,120.00 Z
           M 45.00,125.00
           C 45.00,125.00 48.00,125.00 48.00,125.00
             48.00,125.00 50.00,129.00 50.00,129.00
             50.00,129.00 46.00,130.00 46.00,130.00
             46.00,130.00 45.00,125.00 45.00,125.00 Z
           M 157.00,126.00
           C 157.00,126.00 156.00,126.00 156.00,126.00
             156.00,126.00 157.00,127.00 157.00,127.00
             157.00,127.00 157.00,126.00 157.00,126.00 Z
           M 171.00,128.00
           C 171.00,128.00 170.00,128.00 170.00,128.00
             170.00,128.00 171.00,129.00 171.00,129.00
             171.00,129.00 171.00,128.00 171.00,128.00 Z
           M 160.00,131.00
           C 160.00,131.00 159.00,131.00 159.00,131.00
             159.00,131.00 160.00,132.00 160.00,132.00
             160.00,132.00 160.00,131.00 160.00,131.00 Z
           M 89.00,136.00
           C 89.00,136.00 109.00,157.00 109.00,157.00
             109.00,157.00 103.00,166.00 103.00,166.00
             95.45,163.02 85.65,155.77 83.00,148.00
             89.10,143.61 90.23,143.04 89.00,136.00 Z
           M 159.00,138.00
           C 159.00,138.00 158.00,138.00 158.00,138.00
             158.00,138.00 159.00,139.00 159.00,139.00
             159.00,139.00 159.00,138.00 159.00,138.00 Z
           M 158.00,139.00
           C 158.00,139.00 157.00,139.00 157.00,139.00
             157.00,139.00 158.00,140.00 158.00,140.00
             158.00,140.00 158.00,139.00 158.00,139.00 Z
           M 92.00,141.00
           C 92.00,141.00 91.00,141.00 91.00,141.00
             91.00,141.00 92.00,142.00 92.00,142.00
             92.00,142.00 92.00,141.00 92.00,141.00 Z
           M 56.00,142.00
           C 62.93,147.32 64.89,150.82 74.00,147.00
             74.00,147.00 73.00,154.00 73.00,154.00
             73.00,154.00 76.00,152.00 76.00,152.00
             76.00,152.00 78.00,156.00 78.00,156.00
             78.00,156.00 76.00,158.00 76.00,158.00
             76.00,158.00 79.00,159.00 79.00,159.00
             79.00,159.00 78.00,161.00 78.00,161.00
             78.00,161.00 80.00,163.00 80.00,163.00
             80.00,163.00 66.00,165.00 66.00,165.00
             66.00,165.00 68.00,165.00 68.00,165.00
             68.00,165.00 68.00,166.00 68.00,166.00
             68.00,166.00 64.00,166.00 64.00,166.00
             64.00,166.00 62.00,169.00 62.00,169.00
             62.00,169.00 62.00,161.00 62.00,161.00
             58.02,157.73 56.42,147.09 56.00,142.00 Z
           M 186.00,143.00
           C 186.00,143.00 185.00,143.00 185.00,143.00
             185.00,143.00 186.00,144.00 186.00,144.00
             186.00,144.00 186.00,143.00 186.00,143.00 Z
           M 188.00,144.00
           C 188.00,144.00 187.00,144.00 187.00,144.00
             187.00,144.00 188.00,145.00 188.00,145.00
             188.00,145.00 188.00,144.00 188.00,144.00 Z
           M 97.00,145.00
           C 97.00,145.00 96.00,145.00 96.00,145.00
             96.00,145.00 97.00,146.00 97.00,146.00
             97.00,146.00 97.00,145.00 97.00,145.00 Z
           M 88.00,148.00
           C 88.00,148.00 87.00,148.00 87.00,148.00
             87.00,148.00 88.00,149.00 88.00,149.00
             88.00,149.00 88.00,148.00 88.00,148.00 Z
           M 118.00,147.00
           C 118.00,147.00 132.00,151.00 132.00,151.00
             132.00,151.00 130.00,158.00 130.00,158.00
             121.95,156.43 120.31,155.53 112.00,157.00
             112.00,157.00 118.00,147.00 118.00,147.00 Z
           M 62.00,149.00
           C 62.00,149.00 61.00,149.00 61.00,149.00
             61.00,149.00 62.00,150.00 62.00,150.00
             62.00,150.00 62.00,149.00 62.00,149.00 Z
           M 73.00,149.00
           C 73.00,149.00 72.00,149.00 72.00,149.00
             72.00,149.00 73.00,150.00 73.00,150.00
             73.00,150.00 73.00,149.00 73.00,149.00 Z
           M 86.00,149.00
           C 86.00,149.00 85.00,149.00 85.00,149.00
             85.00,149.00 86.00,150.00 86.00,150.00
             86.00,150.00 86.00,149.00 86.00,149.00 Z
           M 70.00,150.00
           C 70.00,150.00 69.00,150.00 69.00,150.00
             69.00,150.00 70.00,151.00 70.00,151.00
             70.00,151.00 70.00,150.00 70.00,150.00 Z
           M 121.00,150.00
           C 121.00,150.00 120.00,150.00 120.00,150.00
             120.00,150.00 121.00,151.00 121.00,151.00
             121.00,151.00 121.00,150.00 121.00,150.00 Z
           M 188.00,151.00
           C 188.00,151.00 187.00,151.00 187.00,151.00
             187.00,151.00 188.00,152.00 188.00,152.00
             188.00,152.00 188.00,151.00 188.00,151.00 Z
           M 118.00,153.00
           C 118.00,153.00 117.00,153.00 117.00,153.00
             117.00,153.00 118.00,154.00 118.00,154.00
             118.00,154.00 118.00,153.00 118.00,153.00 Z
           M 133.00,161.00
           C 137.19,150.11 142.25,151.96 151.00,157.00
             151.00,157.00 148.00,168.00 148.00,168.00
             148.00,168.00 142.00,165.00 142.00,165.00
             138.76,161.81 137.47,161.48 133.00,161.00 Z
           M 73.00,155.00
           C 73.00,155.00 72.00,155.00 72.00,155.00
             72.00,155.00 73.00,156.00 73.00,156.00
             73.00,156.00 73.00,155.00 73.00,155.00 Z
           M 75.00,155.00
           C 75.00,155.00 74.00,155.00 74.00,155.00
             74.00,155.00 75.00,156.00 75.00,156.00
             75.00,156.00 75.00,155.00 75.00,155.00 Z
           M 145.00,155.00
           C 145.00,155.00 144.00,155.00 144.00,155.00
             144.00,155.00 145.00,156.00 145.00,156.00
             145.00,156.00 145.00,155.00 145.00,155.00 Z
           M 147.00,156.00
           C 147.00,156.00 146.00,156.00 146.00,156.00
             146.00,156.00 147.00,157.00 147.00,157.00
             147.00,157.00 147.00,156.00 147.00,156.00 Z
           M 87.00,157.00
           C 87.00,157.00 88.00,157.00 88.00,157.00
             88.00,157.00 87.00,158.00 87.00,158.00
             87.00,158.00 87.00,157.00 87.00,157.00 Z
           M 63.00,159.00
           C 63.00,159.00 62.00,159.00 62.00,159.00
             62.00,159.00 63.00,160.00 63.00,160.00
             63.00,160.00 63.00,159.00 63.00,159.00 Z
           M 111.00,158.00
           C 111.00,158.00 112.00,158.00 112.00,158.00
             112.00,158.00 112.00,160.00 112.00,160.00
             116.40,156.76 123.60,158.39 128.00,161.00
             128.00,161.00 125.00,164.00 125.00,164.00
             121.29,164.58 120.02,166.35 120.00,170.00
             120.00,170.00 113.91,173.11 113.91,173.11
             109.11,173.78 106.03,168.84 105.00,165.00
             105.00,165.00 111.00,158.00 111.00,158.00 Z
           M 136.00,159.00
           C 136.00,159.00 135.00,159.00 135.00,159.00
             135.00,159.00 136.00,160.00 136.00,160.00
             136.00,160.00 136.00,159.00 136.00,159.00 Z
           M 65.00,160.00
           C 65.00,160.00 64.00,160.00 64.00,160.00
             64.00,160.00 65.00,161.00 65.00,161.00
             65.00,161.00 65.00,160.00 65.00,160.00 Z
           M 70.00,161.00
           C 70.00,161.00 65.00,162.00 65.00,162.00
             65.00,162.00 70.00,161.00 70.00,161.00 Z
           M 97.00,160.00
           C 97.00,160.00 96.00,160.00 96.00,160.00
             96.00,160.00 97.00,161.00 97.00,161.00
             97.00,161.00 97.00,160.00 97.00,160.00 Z
           M 159.00,160.00
           C 159.00,160.00 158.00,160.00 158.00,160.00
             158.00,160.00 159.00,161.00 159.00,161.00
             159.00,161.00 159.00,160.00 159.00,160.00 Z
           M 98.00,161.00
           C 98.00,161.00 97.00,161.00 97.00,161.00
             97.00,161.00 98.00,162.00 98.00,162.00
             98.00,162.00 98.00,161.00 98.00,161.00 Z
           M 71.00,162.00
           C 71.00,162.00 70.00,162.00 70.00,162.00
             70.00,162.00 71.00,163.00 71.00,163.00
             71.00,163.00 71.00,162.00 71.00,162.00 Z
           M 102.00,162.00
           C 102.00,162.00 101.00,162.00 101.00,162.00
             101.00,162.00 102.00,163.00 102.00,163.00
             102.00,163.00 102.00,162.00 102.00,162.00 Z
           M 160.00,162.00
           C 160.00,162.00 159.00,162.00 159.00,162.00
             159.00,162.00 160.00,163.00 160.00,163.00
             160.00,163.00 160.00,162.00 160.00,162.00 Z
           M 52.00,163.00
           C 52.00,163.00 58.00,162.00 58.00,162.00
             58.00,162.00 61.00,169.00 61.00,169.00
             61.00,169.00 62.00,173.00 62.00,173.00
             58.31,171.67 58.45,170.75 58.00,167.00
             58.00,167.00 55.00,166.00 55.00,166.00
             55.00,166.00 59.00,165.00 59.00,165.00
             59.00,165.00 52.00,163.00 52.00,163.00 Z
           M 63.00,163.00
           C 63.00,163.00 62.00,163.00 62.00,163.00
             62.00,163.00 63.00,164.00 63.00,164.00
             63.00,164.00 63.00,163.00 63.00,163.00 Z
           M 131.00,164.00
           C 138.81,163.03 141.46,165.13 147.00,170.00
             147.00,170.00 144.00,178.00 144.00,178.00
             135.46,172.01 138.53,172.90 128.00,171.00
             128.00,171.00 131.00,164.00 131.00,164.00 Z
           M 138.00,165.00
           C 138.00,165.00 137.00,165.00 137.00,165.00
             137.00,165.00 138.00,166.00 138.00,166.00
             138.00,166.00 138.00,165.00 138.00,165.00 Z
           M 169.00,167.00
           C 169.00,167.00 168.00,167.00 168.00,167.00
             168.00,167.00 169.00,168.00 169.00,168.00
             169.00,168.00 169.00,167.00 169.00,167.00 Z
           M 72.00,167.00
           C 72.00,167.00 77.00,168.00 77.00,168.00
             77.00,168.00 72.00,167.00 72.00,167.00 Z
           M 138.00,168.00
           C 138.00,168.00 137.00,168.00 137.00,168.00
             137.00,168.00 138.00,169.00 138.00,169.00
             138.00,169.00 138.00,168.00 138.00,168.00 Z
           M 142.00,168.00
           C 142.00,168.00 141.00,168.00 141.00,168.00
             141.00,168.00 142.00,169.00 142.00,169.00
             142.00,169.00 142.00,168.00 142.00,168.00 Z
           M 43.00,168.00
           C 43.00,168.00 49.00,171.00 49.00,171.00
             49.00,171.00 48.00,174.00 48.00,174.00
             48.00,174.00 51.00,174.00 51.00,174.00
             51.00,174.00 52.00,177.00 52.00,177.00
             52.00,177.00 49.00,176.00 49.00,176.00
             49.00,176.00 49.00,180.00 49.00,180.00
             53.17,180.23 53.09,181.14 54.00,185.00
             54.00,185.00 43.00,184.00 43.00,184.00
             43.00,184.00 42.00,181.00 42.00,181.00
             42.00,181.00 40.00,184.00 40.00,184.00
             40.01,180.68 39.39,178.34 42.00,176.00
             42.00,176.00 43.00,168.00 43.00,168.00 Z
           M 136.00,169.00
           C 136.00,169.00 135.00,169.00 135.00,169.00
             135.00,169.00 136.00,170.00 136.00,170.00
             136.00,170.00 136.00,169.00 136.00,169.00 Z
           M 114.00,170.00
           C 114.00,170.00 113.00,170.00 113.00,170.00
             113.00,170.00 114.00,171.00 114.00,171.00
             114.00,171.00 114.00,170.00 114.00,170.00 Z
           M 132.00,170.00
           C 132.00,170.00 131.00,170.00 131.00,170.00
             131.00,170.00 132.00,171.00 132.00,171.00
             132.00,171.00 132.00,170.00 132.00,170.00 Z
           M 142.00,170.00
           C 142.00,170.00 141.00,170.00 141.00,170.00
             141.00,170.00 142.00,171.00 142.00,171.00
             142.00,171.00 142.00,170.00 142.00,170.00 Z
           M 185.00,170.00
           C 185.00,170.00 184.00,170.00 184.00,170.00
             184.00,170.00 185.00,171.00 185.00,171.00
             185.00,171.00 185.00,170.00 185.00,170.00 Z
           M 113.00,171.00
           C 113.00,171.00 112.00,171.00 112.00,171.00
             112.00,171.00 113.00,172.00 113.00,172.00
             113.00,172.00 113.00,171.00 113.00,171.00 Z
           M 144.00,171.00
           C 144.00,171.00 143.00,171.00 143.00,171.00
             143.00,171.00 144.00,172.00 144.00,172.00
             144.00,172.00 144.00,171.00 144.00,171.00 Z
           M 46.00,172.00
           C 46.00,172.00 45.00,172.00 45.00,172.00
             45.00,172.00 46.00,173.00 46.00,173.00
             46.00,173.00 46.00,172.00 46.00,172.00 Z
           M 114.00,172.00
           C 114.00,172.00 113.00,172.00 113.00,172.00
             113.00,172.00 114.00,173.00 114.00,173.00
             114.00,173.00 114.00,172.00 114.00,172.00 Z
           M 140.00,172.00
           C 140.00,172.00 139.00,172.00 139.00,172.00
             139.00,172.00 140.00,173.00 140.00,173.00
             140.00,173.00 140.00,172.00 140.00,172.00 Z
           M 88.00,172.00
           C 88.00,172.00 89.00,172.00 89.00,172.00
             89.00,172.00 88.00,173.00 88.00,173.00
             88.00,173.00 88.00,172.00 88.00,172.00 Z
           M 120.00,182.00
           C 125.74,170.25 126.42,174.07 136.00,173.00
             136.00,173.00 141.94,180.09 141.94,180.09
             141.94,180.09 141.00,192.00 141.00,192.00
             141.00,192.00 138.00,192.00 138.00,192.00
             132.45,185.70 127.97,183.77 120.00,182.00 Z
           M 128.00,174.00
           C 128.00,174.00 127.00,174.00 127.00,174.00
             127.00,174.00 128.00,175.00 128.00,175.00
             128.00,175.00 128.00,174.00 128.00,174.00 Z
           M 172.00,175.00
           C 172.00,175.00 171.00,175.00 171.00,175.00
             171.00,175.00 172.00,176.00 172.00,176.00
             172.00,176.00 172.00,175.00 172.00,175.00 Z
           M 126.00,176.00
           C 126.00,176.00 125.00,176.00 125.00,176.00
             125.00,176.00 126.00,177.00 126.00,177.00
             126.00,177.00 126.00,176.00 126.00,176.00 Z
           M 173.00,176.00
           C 173.00,176.00 172.00,176.00 172.00,176.00
             172.00,176.00 173.00,177.00 173.00,177.00
             173.00,177.00 173.00,176.00 173.00,176.00 Z
           M 43.00,177.00
           C 43.00,177.00 42.00,177.00 42.00,177.00
             42.00,177.00 43.00,178.00 43.00,178.00
             43.00,178.00 43.00,177.00 43.00,177.00 Z
           M 171.00,177.00
           C 171.00,177.00 170.00,177.00 170.00,177.00
             170.00,177.00 171.00,178.00 171.00,178.00
             171.00,178.00 171.00,177.00 171.00,177.00 Z
           M 42.00,178.00
           C 42.00,178.00 41.00,178.00 41.00,178.00
             41.00,178.00 42.00,179.00 42.00,179.00
             42.00,179.00 42.00,178.00 42.00,178.00 Z
           M 48.00,178.00
           C 48.00,178.00 47.00,178.00 47.00,178.00
             47.00,178.00 48.00,179.00 48.00,179.00
             48.00,179.00 48.00,178.00 48.00,178.00 Z
           M 45.00,179.00
           C 45.00,179.00 44.00,179.00 44.00,179.00
             44.00,179.00 45.00,180.00 45.00,180.00
             45.00,180.00 45.00,179.00 45.00,179.00 Z
           M 42.00,180.00
           C 42.00,180.00 41.00,180.00 41.00,180.00
             41.00,180.00 42.00,181.00 42.00,181.00
             42.00,181.00 42.00,180.00 42.00,180.00 Z
           M 46.00,180.00
           C 46.00,180.00 45.00,180.00 45.00,180.00
             45.00,180.00 46.00,181.00 46.00,181.00
             46.00,181.00 46.00,180.00 46.00,180.00 Z
           M 51.00,181.00
           C 51.00,181.00 50.00,181.00 50.00,181.00
             50.00,181.00 51.00,182.00 51.00,182.00
             51.00,182.00 51.00,181.00 51.00,181.00 Z
           M 119.00,187.00
           C 121.17,181.97 129.00,186.71 131.00,190.00
             136.00,190.95 137.42,193.37 139.00,198.00
             139.00,198.00 136.00,197.00 136.00,197.00
             138.09,201.15 137.74,201.53 137.00,206.00
             137.00,206.00 134.00,202.00 134.00,202.00
             134.00,202.00 124.93,197.33 124.93,197.33
             124.93,197.33 113.00,192.00 113.00,192.00
             113.00,192.00 115.00,193.00 115.00,193.00
             115.10,189.37 115.25,187.91 119.00,187.00 Z
           M 161.00,185.00
           C 161.00,185.00 160.00,185.00 160.00,185.00
             160.00,185.00 161.00,186.00 161.00,186.00
             161.00,186.00 161.00,185.00 161.00,185.00 Z
           M 136.00,186.00
           C 136.00,186.00 135.00,186.00 135.00,186.00
             135.00,186.00 136.00,187.00 136.00,187.00
             136.00,187.00 136.00,186.00 136.00,186.00 Z
           M 162.00,186.00
           C 162.00,186.00 161.00,186.00 161.00,186.00
             161.00,186.00 162.00,187.00 162.00,187.00
             162.00,187.00 162.00,186.00 162.00,186.00 Z
           M 118.00,188.00
           C 118.00,188.00 117.00,188.00 117.00,188.00
             117.00,188.00 118.00,189.00 118.00,189.00
             118.00,189.00 118.00,188.00 118.00,188.00 Z
           M 126.00,188.00
           C 126.00,188.00 125.00,188.00 125.00,188.00
             125.00,188.00 126.00,189.00 126.00,189.00
             126.00,189.00 126.00,188.00 126.00,188.00 Z
           M 157.00,188.00
           C 157.00,188.00 156.00,188.00 156.00,188.00
             156.00,188.00 157.00,189.00 157.00,189.00
             157.00,189.00 157.00,188.00 157.00,188.00 Z
           M 139.00,190.00
           C 139.00,190.00 138.00,190.00 138.00,190.00
             138.00,190.00 139.00,191.00 139.00,191.00
             139.00,191.00 139.00,190.00 139.00,190.00 Z
           M 119.00,191.00
           C 119.00,191.00 118.00,191.00 118.00,191.00
             118.00,191.00 119.00,192.00 119.00,192.00
             119.00,192.00 119.00,191.00 119.00,191.00 Z
           M 126.00,191.00
           C 126.00,191.00 125.00,191.00 125.00,191.00
             125.00,191.00 126.00,192.00 126.00,192.00
             126.00,192.00 126.00,191.00 126.00,191.00 Z
           M 61.00,191.00
           C 64.28,193.93 77.91,207.66 78.72,211.07
             80.17,217.12 70.56,217.49 67.00,212.00
             67.00,212.00 70.00,212.00 70.00,212.00
             65.37,209.55 62.87,208.04 61.00,203.00
             61.00,203.00 67.00,206.00 67.00,206.00
             63.28,200.79 61.58,197.43 61.00,191.00 Z
           M 124.00,194.00
           C 124.00,194.00 123.00,194.00 123.00,194.00
             123.00,194.00 124.00,195.00 124.00,195.00
             124.00,195.00 124.00,194.00 124.00,194.00 Z
           M 128.00,194.00
           C 128.00,194.00 127.00,194.00 127.00,194.00
             127.00,194.00 128.00,195.00 128.00,195.00
             128.00,195.00 128.00,194.00 128.00,194.00 Z
           M 73.00,195.00
           C 73.00,195.00 76.00,194.00 76.00,194.00
             76.00,194.00 77.00,195.00 77.00,195.00
             77.00,195.00 73.00,201.00 73.00,201.00
             73.00,201.00 73.00,195.00 73.00,195.00 Z
           M 110.00,196.00
           C 121.69,196.04 135.88,201.83 133.00,216.00
             127.49,213.40 126.60,210.91 122.00,207.97
             116.69,204.57 111.16,203.73 105.00,204.00
             106.42,199.27 107.72,198.98 112.00,197.00
             112.00,197.00 110.00,197.00 110.00,197.00
             110.00,197.00 110.00,196.00 110.00,196.00 Z
           M 112.00,199.00
           C 112.00,199.00 111.00,199.00 111.00,199.00
             111.00,199.00 112.00,200.00 112.00,200.00
             112.00,200.00 112.00,199.00 112.00,199.00 Z
           M 120.00,199.00
           C 120.00,199.00 119.00,199.00 119.00,199.00
             119.00,199.00 120.00,200.00 120.00,200.00
             120.00,200.00 120.00,199.00 120.00,199.00 Z
           M 136.00,200.00
           C 136.00,200.00 135.00,200.00 135.00,200.00
             135.00,200.00 136.00,201.00 136.00,201.00
             136.00,201.00 136.00,200.00 136.00,200.00 Z
           M 87.00,205.00
           C 89.20,201.61 91.33,201.29 95.00,200.00
             95.00,200.00 98.00,204.00 98.00,204.00
             98.00,204.00 96.00,200.00 96.00,200.00
             100.84,200.84 100.56,202.03 103.00,206.00
             103.00,206.00 83.00,214.00 83.00,214.00
             83.00,214.00 80.00,218.00 80.00,218.00
             81.51,213.17 81.35,212.89 80.00,208.00
             80.00,208.00 87.00,205.00 87.00,205.00 Z
           M 99.00,201.00
           C 99.00,201.00 98.00,201.00 98.00,201.00
             98.00,201.00 99.00,202.00 99.00,202.00
             99.00,202.00 99.00,201.00 99.00,201.00 Z
           M 92.00,202.00
           C 92.00,202.00 91.00,202.00 91.00,202.00
             91.00,202.00 92.00,203.00 92.00,203.00
             92.00,203.00 92.00,202.00 92.00,202.00 Z
           M 95.00,202.00
           C 95.00,202.00 94.00,202.00 94.00,202.00
             94.00,202.00 95.00,203.00 95.00,203.00
             95.00,203.00 95.00,202.00 95.00,202.00 Z
           M 130.00,204.00
           C 130.00,204.00 129.00,204.00 129.00,204.00
             129.00,204.00 130.00,205.00 130.00,205.00
             130.00,205.00 130.00,204.00 130.00,204.00 Z
           M 74.00,205.00
           C 74.00,205.00 73.00,205.00 73.00,205.00
             73.00,205.00 74.00,206.00 74.00,206.00
             74.00,206.00 74.00,205.00 74.00,205.00 Z
           M 88.00,205.00
           C 88.00,205.00 87.00,205.00 87.00,205.00
             87.00,205.00 88.00,206.00 88.00,206.00
             88.00,206.00 88.00,205.00 88.00,205.00 Z
           M 98.00,205.00
           C 98.00,205.00 97.00,205.00 97.00,205.00
             97.00,205.00 98.00,206.00 98.00,206.00
             98.00,206.00 98.00,205.00 98.00,205.00 Z
           M 131.00,205.00
           C 131.00,205.00 130.00,205.00 130.00,205.00
             130.00,205.00 131.00,206.00 131.00,206.00
             131.00,206.00 131.00,205.00 131.00,205.00 Z
           M 68.00,206.00
           C 68.00,206.00 67.00,206.00 67.00,206.00
             67.00,206.00 68.00,207.00 68.00,207.00
             68.00,207.00 68.00,206.00 68.00,206.00 Z
           M 73.00,206.00
           C 73.00,206.00 72.00,206.00 72.00,206.00
             72.00,206.00 73.00,207.00 73.00,207.00
             73.00,207.00 73.00,206.00 73.00,206.00 Z
           M 75.00,207.00
           C 75.00,207.00 74.00,207.00 74.00,207.00
             74.00,207.00 75.00,208.00 75.00,208.00
             75.00,208.00 75.00,207.00 75.00,207.00 Z
           M 84.00,207.00
           C 84.00,207.00 83.00,207.00 83.00,207.00
             83.00,207.00 84.00,208.00 84.00,208.00
             84.00,208.00 84.00,207.00 84.00,207.00 Z
           M 93.00,207.00
           C 93.00,207.00 92.00,207.00 92.00,207.00
             92.00,207.00 93.00,208.00 93.00,208.00
             93.00,208.00 93.00,207.00 93.00,207.00 Z
           M 90.00,208.00
           C 90.00,208.00 89.00,208.00 89.00,208.00
             89.00,208.00 90.00,209.00 90.00,209.00
             90.00,209.00 90.00,208.00 90.00,208.00 Z
           M 69.00,209.00
           C 69.00,209.00 68.00,209.00 68.00,209.00
             68.00,209.00 69.00,210.00 69.00,210.00
             69.00,210.00 69.00,209.00 69.00,209.00 Z
           M 108.00,210.00
           C 108.00,210.00 118.00,218.00 118.00,218.00
             118.00,218.00 118.00,216.00 118.00,216.00
             118.00,216.00 119.00,216.00 119.00,216.00
             119.00,216.00 118.00,220.00 118.00,220.00
             118.00,220.00 120.00,220.00 120.00,220.00
             120.00,220.00 120.00,221.00 120.00,221.00
             120.00,221.00 118.00,221.00 118.00,221.00
             118.00,221.00 120.00,224.00 120.00,224.00
             120.00,224.00 114.00,222.00 114.00,222.00
             114.00,222.00 115.00,220.00 115.00,220.00
             115.00,220.00 106.00,218.00 106.00,218.00
             106.00,218.00 102.00,215.00 102.00,215.00
             102.00,215.00 108.00,210.00 108.00,210.00 Z
           M 111.00,210.00
           C 111.00,210.00 112.00,210.00 112.00,210.00
             112.00,210.00 111.00,211.00 111.00,211.00
             111.00,211.00 111.00,210.00 111.00,210.00 Z
           M 86.00,212.00
           C 86.00,212.00 85.00,212.00 85.00,212.00
             85.00,212.00 86.00,213.00 86.00,213.00
             86.00,213.00 86.00,212.00 86.00,212.00 Z
           M 130.00,212.00
           C 130.00,212.00 129.00,212.00 129.00,212.00
             129.00,212.00 130.00,213.00 130.00,213.00
             130.00,213.00 130.00,212.00 130.00,212.00 Z
           M 114.00,214.00
           C 114.00,214.00 113.00,214.00 113.00,214.00
             113.00,214.00 114.00,215.00 114.00,215.00
             114.00,215.00 114.00,214.00 114.00,214.00 Z
           M 116.00,215.00
           C 116.00,215.00 114.00,215.00 114.00,215.00
             114.00,215.00 116.00,218.00 116.00,218.00
             116.00,218.00 116.00,215.00 116.00,215.00 Z
           M 112.00,217.00
           C 112.00,217.00 111.00,217.00 111.00,217.00
             111.00,217.00 112.00,218.00 112.00,218.00
             112.00,218.00 112.00,217.00 112.00,217.00 Z
           M 114.00,218.00
           C 114.00,218.00 113.00,218.00 113.00,218.00
             113.00,218.00 114.00,219.00 114.00,219.00
             114.00,219.00 114.00,218.00 114.00,218.00 Z
           M 117.00,218.00
           C 117.00,218.00 116.00,218.00 116.00,218.00
             116.00,218.00 117.00,219.00 117.00,219.00
             117.00,219.00 117.00,218.00 117.00,218.00 Z
           M 116.00,219.00
           C 116.00,219.00 115.00,219.00 115.00,219.00
             115.00,219.00 116.00,220.00 116.00,220.00
             116.00,220.00 116.00,219.00 116.00,219.00 Z
           M 118.00,222.00
           C 118.00,222.00 117.00,222.00 117.00,222.00
             117.00,222.00 118.00,223.00 118.00,223.00
             118.00,223.00 118.00,222.00 118.00,222.00 Z" />
</svg>